<?xml version="1.0" standalone="no"?>
<!DOCTYPE svg PUBLIC "-//W3C//DTD SVG 20010904//EN"
 "http://www.w3.org/TR/2001/REC-SVG-20010904/DTD/svg10.dtd">
<svg version="1.0" xmlns="http://www.w3.org/2000/svg"
 width="200.000000pt" height="200.000000pt" viewBox="0 0 200.000000 200.000000"
 preserveAspectRatio="xMidYMid meet">
<metadata>
Created by potrace 1.11, written by Peter Selinger 2001-2013
</metadata>
<g transform="translate(0.000000,200.000000) scale(0.100000,-0.100000)"
fill="#000000" stroke="none">
<path d="M1020 1902 c-13 -16 -25 -18 -85 -12 -71 6 -155 -5 -246 -33 -59 -18
-189 -94 -189 -111 0 -15 -53 -56 -73 -56 -19 0 -146 -134 -194 -206 -58 -85
-142 -258 -160 -329 -10 -37 -16 -107 -16 -185 -1 -142 11 -197 73 -342 22
-50 38 -93 36 -96 -6 -5 -38 58 -61 121 -24 65 -30 53 -6 -14 32 -93 102 -217
84 -149 -9 33 3 23 61 -51 60 -76 77 -117 25 -59 l-31 35 32 -42 c23 -31 39
-43 57 -43 25 0 26 0 8 20 -41 46 7 14 105 -70 99 -85 184 -139 240 -155 20
-5 22 -4 10 5 -12 10 -12 11 5 5 134 -44 172 -50 315 -49 175 2 287 27 432 98
87 42 241 158 276 208 7 10 19 18 25 18 13 0 83 100 116 166 24 47 64 191 56
203 -3 5 2 46 9 91 20 113 3 277 -43 415 -64 193 -75 213 -173 324 -104 117
-199 176 -413 256 -11 4 -15 9 -9 12 7 2 41 -8 75 -22 91 -38 100 -40 49 -11
-39 22 -160 67 -179 66 -3 0 3 -8 14 -16 19 -15 15 -16 -51 -10 -39 3 -86 9
-105 13 l-34 7 30 7 c28 6 28 7 -10 8 -27 0 -45 -5 -55 -17z m176 -142 c86
-22 198 -78 317 -158 86 -58 121 -95 223 -236 56 -78 83 -211 84 -406 0 -197
-46 -325 -171 -475 -82 -98 -152 -161 -214 -192 -44 -23 -227 -83 -250 -83 -8
0 -22 -8 -32 -19 -28 -29 -192 -37 -319 -16 -155 27 -232 71 -397 225 -88 83
-155 171 -192 254 -32 73 -57 244 -54 371 1 55 -1 107 -5 116 -8 17 23 131 56
208 24 56 149 195 231 257 212 159 479 216 723 154z"/>
<path d="M947 1512 c-30 -3 -40 -9 -47 -28 -14 -35 -14 -34 21 -34 21 0 29 -4
26 -12 -3 -7 -12 -30 -21 -51 -14 -33 -15 -38 -2 -43 9 -3 21 -4 28 -1 7 3 41
-11 76 -30 34 -19 67 -31 72 -28 15 9 12 42 -4 48 -11 4 -11 15 -3 56 10 50
27 70 27 31 0 -11 -4 -20 -10 -20 -19 0 -10 -32 10 -37 11 -3 20 -10 20 -16 0
-5 9 -2 19 7 11 10 18 23 16 29 -2 7 -11 38 -20 70 -13 48 -19 57 -39 57 -19
0 -26 -9 -41 -59 -10 -33 -15 -69 -12 -80 3 -12 3 -21 0 -21 -5 0 -69 36 -82
46 -2 2 4 21 13 44 28 69 22 78 -47 72z"/>
<path d="M1332 1511 c-20 -12 -12 -166 8 -166 12 0 16 17 18 79 3 81 -3 101
-26 87z"/>
<path d="M1439 1513 c-16 -4 -49 -92 -49 -130 0 -11 7 -26 15 -33 13 -11 15
-8 15 16 1 26 2 27 14 12 7 -10 18 -18 25 -18 6 0 11 -4 11 -10 0 -14 27 -1
34 16 6 15 -30 141 -42 147 -4 2 -14 2 -23 0z m7 -105 c-14 -9 -20 7 -11 30 6
15 8 15 15 -3 4 -12 3 -23 -4 -27z"/>
<path d="M514 1495 c-10 -25 3 -44 25 -38 20 5 21 1 21 -56 0 -45 4 -61 14
-61 14 0 26 42 26 91 0 19 5 29 15 29 9 0 15 9 15 25 0 24 -3 25 -55 25 -40 0
-57 -4 -61 -15z"/>
<path d="M660 1486 c-24 -64 -31 -108 -19 -122 12 -15 34 -20 25 -6 -8 13 13
82 24 82 13 0 13 -27 0 -35 -18 -11 -10 -40 15 -51 40 -19 52 5 35 69 -7 29
-17 60 -22 70 -13 25 -47 21 -58 -7z"/>
<path d="M777 1503 c-4 -3 -7 -42 -7 -85 0 -72 2 -78 20 -78 17 0 19 5 14 25
-3 14 -2 25 3 25 6 0 15 -11 21 -25 7 -15 20 -25 32 -25 18 0 20 6 20 54 0 72
-10 116 -26 116 -7 0 -14 -14 -16 -32 l-3 -33 -18 33 c-17 32 -27 38 -40 25z"/>
<path d="M1196 1479 c-8 -39 -8 -87 0 -116 9 -33 34 -29 34 5 l1 27 17 -28
c11 -17 24 -27 36 -25 17 3 19 11 17 78 -3 82 -5 90 -28 90 -11 0 -14 -8 -11
-30 3 -16 1 -30 -3 -30 -3 0 -12 14 -19 30 -16 39 -36 38 -44 -1z"/>
<path d="M362 1193 c2 -43 7 -78 13 -78 5 0 8 21 6 47 -3 51 4 72 20 62 7 -4
7 -10 0 -18 -6 -7 -6 -17 -1 -26 13 -21 40 6 40 41 0 30 -23 49 -60 49 -20 0
-21 -4 -18 -77z"/>
<path d="M476 1248 c-22 -31 -20 -91 2 -111 64 -58 128 47 67 108 -30 31 -49
32 -69 3z m52 -61 c2 -15 -1 -27 -5 -27 -15 0 -33 23 -33 43 0 30 34 16 38
-16z"/>
<path d="M585 1227 c-4 -24 -5 -56 -3 -73 3 -25 7 -29 33 -29 20 0 31 5 33 18
2 10 -3 17 -12 17 -13 0 -16 12 -16 55 0 41 -4 55 -14 55 -10 0 -17 -15 -21
-43z"/>
<path d="M662 1195 c3 -42 7 -77 9 -79 2 -3 20 -1 39 3 40 8 53 36 19 38 -31
3 -43 18 -35 47 5 20 13 26 32 26 19 0 25 5 22 18 -2 12 -14 18 -47 19 l-44 3
5 -75z"/>
<path d="M822 1193 c2 -48 7 -76 13 -73 6 3 10 23 11 45 1 56 3 65 14 65 5 0
7 -13 4 -30 -10 -45 27 -36 39 10 8 32 -17 60 -55 60 l-29 0 3 -77z"/>
<path d="M940 1250 c-42 -42 -17 -130 38 -130 53 0 73 87 29 128 -29 27 -41
28 -67 2z m48 -63 c2 -15 -1 -27 -6 -27 -17 0 -34 29 -28 46 9 23 31 11 34
-19z"/>
<path d="M1050 1194 l0 -75 27 3 c30 3 47 38 19 38 -13 0 -16 12 -16 55 0 42
-3 55 -15 55 -12 0 -15 -15 -15 -76z"/>
<path d="M1123 1254 c-3 -8 -2 -43 3 -77 l9 -62 35 4 c53 5 71 41 20 41 -28 0
-30 3 -30 35 0 31 3 35 26 35 19 0 25 4 22 18 -4 23 -76 28 -85 6z"/>
<path d="M1325 1258 c-11 -6 -26 -18 -32 -26 -30 -37 -1 -116 40 -110 24 4 36
28 13 28 -8 0 -21 10 -27 22 -10 19 -8 25 15 44 38 34 32 64 -9 42z"/>
<path d="M1379 1228 c-2 -24 -3 -58 -1 -76 3 -29 6 -33 30 -30 29 3 45 38 18
38 -13 0 -16 12 -16 55 0 40 -4 55 -14 55 -9 0 -15 -14 -17 -42z"/>
<path d="M1457 1233 c-10 -63 4 -96 44 -105 60 -13 68 1 53 95 -5 27 -11 37
-23 35 -12 -2 -15 -13 -12 -47 2 -33 -1 -42 -11 -39 -8 3 -13 22 -14 49 0 31
-5 45 -16 47 -11 2 -17 -8 -21 -35z"/>
<path d="M1577 1264 c-8 -9 -10 -106 -1 -128 3 -9 13 -16 21 -16 8 0 11 5 8
11 -4 6 3 5 15 -3 18 -11 23 -11 34 5 13 17 11 104 -3 119 -10 12 -65 20 -74
12z m48 -75 c0 -18 -6 -34 -12 -36 -14 -5 -19 58 -7 70 12 12 20 -1 19 -34z"/>
<path d="M710 1195 c0 -8 7 -15 15 -15 8 0 15 7 15 15 0 8 -7 15 -15 15 -8 0
-15 -7 -15 -15z"/>
<path d="M1170 1196 c0 -21 21 -31 30 -15 5 7 6 17 4 21 -9 14 -34 9 -34 -6z"/>
<path d="M884 1041 c-28 -9 -68 -27 -88 -39 -21 -12 -42 -20 -47 -17 -5 4 -9
2 -9 -3 0 -5 -14 -7 -30 -4 -24 3 -42 -4 -84 -36 -34 -26 -85 -51 -137 -68
-129 -42 -175 -104 -111 -154 25 -21 34 -22 112 -15 95 8 102 8 250 1 103 -5
104 -4 40 7 -62 10 -63 11 -30 18 l35 6 -37 2 c-21 0 -38 6 -38 11 0 6 40 10
101 10 l101 0 35 -35 c28 -28 34 -41 31 -67 -2 -23 -9 -34 -22 -36 -16 -4 -18
0 -12 31 4 20 2 38 -3 41 -11 7 -21 -17 -21 -50 l0 -24 -315 2 c-173 2 -315 1
-315 -1 0 -2 20 -31 44 -65 72 -100 245 -255 336 -301 80 -40 229 -68 329 -61
47 4 89 10 95 15 6 5 49 19 94 31 131 33 238 76 293 116 67 49 229 235 229
264 0 3 -152 5 -337 5 l-338 0 -3 46 c-2 34 2 49 16 62 19 17 126 36 206 37
37 0 39 -1 20 -15 -18 -13 -17 -14 17 -15 20 0 58 -4 85 -9 27 -5 86 -12 131
-16 74 -6 83 -5 102 14 30 30 26 58 -14 98 -26 26 -39 33 -48 25 -8 -7 -18 -7
-27 -2 -8 6 -25 10 -37 10 -12 0 -38 16 -57 35 -27 26 -44 35 -70 35 -19 0
-60 14 -91 30 -32 17 -72 30 -92 30 -20 0 -46 9 -60 20 -29 23 -114 50 -152
49 -14 0 -49 -8 -77 -18z m341 -144 c-2 -7 -6 -24 -9 -39 -4 -16 -11 -28 -17
-28 -7 0 -8 11 -4 30 4 19 3 30 -4 30 -18 0 -12 18 7 23 22 5 32 -1 27 -16z
m-418 -2 c-4 -8 -2 -17 3 -20 6 -4 10 3 10 14 0 12 5 21 10 21 6 0 10 -15 10
-33 0 -30 -3 -34 -28 -35 -24 0 -28 3 -26 26 1 39 3 42 15 42 6 0 9 -7 6 -15z
m90 3 c7 -5 14 -5 18 2 8 13 85 13 85 0 0 -5 -7 -10 -16 -10 -14 0 -14 -1 0
-16 19 -19 12 -34 -15 -34 -14 0 -19 7 -19 25 0 26 -14 33 -26 13 -4 -6 -2
-14 4 -16 17 -5 15 -22 -3 -22 -8 0 -15 6 -15 13 0 8 -3 8 -8 1 -4 -5 -17 -10
-29 -10 -19 0 -23 6 -23 31 0 33 21 43 47 23z m164 0 c0 -10 2 -10 6 0 2 6 13
12 23 12 10 0 21 -6 24 -12 5 -10 7 -10 12 0 9 19 42 14 49 -8 7 -22 -10 -60
-26 -60 -6 0 -9 6 -6 13 2 6 -1 17 -8 24 -10 9 -15 6 -24 -13 -11 -24 -37 -35
-28 -11 2 6 -2 18 -9 25 -12 11 -14 9 -14 -8 0 -11 -4 -20 -10 -20 -5 0 -10 9
-10 19 0 11 -3 26 -6 35 -4 11 -1 16 10 16 9 0 16 -6 17 -12z m-391 -138 c0
-13 -11 -13 -30 0 -12 8 -11 10 8 10 12 0 22 -4 22 -10z m330 -270 c0 -47 -3
-60 -15 -60 -11 0 -15 13 -15 53 0 30 3 57 7 60 17 17 23 2 23 -53z m206 45
c-3 -9 0 -15 9 -15 20 0 19 -26 0 -34 -11 -4 -14 -13 -9 -31 4 -18 2 -25 -8
-25 -19 0 -46 82 -29 88 6 2 11 10 11 18 0 8 7 14 16 14 10 0 14 -6 10 -15z
m63 -45 c1 -47 -2 -60 -14 -60 -12 0 -14 13 -13 60 1 39 6 60 13 60 8 0 13
-21 14 -60z m-633 35 c4 -8 10 -12 15 -9 5 2 18 0 31 -7 21 -11 21 -12 4 -25
-11 -7 -16 -20 -13 -28 8 -20 -13 -33 -24 -15 -5 8 -9 24 -9 37 0 34 -18 26
-22 -10 -2 -21 -8 -33 -18 -33 -11 0 -14 9 -12 33 3 24 0 32 -12 32 -16 0 -22
21 -9 33 12 13 64 7 69 -8z m432 -35 l22 -33 0 32 c0 23 5 31 18 31 28 0 39
-13 46 -52 6 -31 4 -38 -9 -38 -9 0 -15 9 -15 25 0 14 -5 25 -11 25 -6 0 -8
-7 -5 -16 9 -23 -3 -37 -20 -23 -8 6 -14 7 -14 2 0 -18 -59 -13 -63 5 -4 14
-3 69 2 80 4 11 29 -9 49 -38z m-305 18 c4 -10 7 -10 18 0 18 17 46 15 53 -3
9 -23 -4 -47 -23 -41 -12 5 -11 2 3 -9 17 -13 18 -15 2 -21 -19 -7 -46 12 -47
35 0 10 -2 11 -6 4 -7 -18 -21 -16 -26 5 -4 16 -5 16 -6 -1 0 -10 6 -20 14
-23 18 -7 10 -24 -11 -24 -23 0 -38 43 -25 69 13 23 47 28 54 9z m185 0 c26
-26 1 -91 -28 -73 -6 4 -10 -4 -10 -20 0 -17 -5 -25 -12 -23 -8 3 -14 28 -16
66 l-3 62 29 0 c15 0 33 -5 40 -12z m390 -1 c6 -7 12 -26 14 -42 2 -21 -2 -30
-14 -33 -14 -3 -18 4 -20 30 l-1 33 -4 -32 c-5 -35 -17 -43 -27 -17 -8 21 -8
59 1 67 11 11 40 8 51 -6z m97 -7 c18 -20 18 -21 -5 -45 -19 -21 -21 -25 -7
-25 9 0 17 -6 17 -13 0 -21 -12 -28 -27 -16 -9 9 -13 8 -13 0 0 -6 -7 -11 -16
-11 -12 0 -15 6 -11 20 3 12 2 33 -3 49 -15 54 28 82 65 41z"/>
<path d="M1085 880 c3 -5 8 -10 11 -10 2 0 4 5 4 10 0 6 -5 10 -11 10 -5 0 -7
-4 -4 -10z"/>
<path d="M1145 880 c3 -5 8 -10 11 -10 2 0 4 5 4 10 0 6 -5 10 -11 10 -5 0 -7
-4 -4 -10z"/>
<path d="M910 469 c0 -5 5 -7 10 -4 6 3 10 8 10 11 0 2 -4 4 -10 4 -5 0 -10
-5 -10 -11z"/>
<path d="M1395 480 c3 -5 8 -10 11 -10 2 0 4 5 4 10 0 6 -5 10 -11 10 -5 0 -7
-4 -4 -10z"/>
<path d="M1127 735 c-74 -16 -82 -24 -71 -72 l8 -38 4 37 c4 44 18 54 90 64
29 3 52 10 52 15 0 11 -10 10 -83 -6z"/>
<path d="M133 1406 c-26 -41 -61 -153 -38 -122 8 11 15 26 15 33 0 8 12 36 26
64 30 59 28 72 -3 25z"/>
</g>
</svg>
